# xmcd
#
# Track frame offsets: 
#        150
#        19247
#        36265
#        49685
#        71277
#        84432
#        100805
#        118660
#        135940
#        151230
#        171290
#        189700
#        208105
#        231905
#
# Disc length: 3318 seconds
#
# Revision: 2
# Processed by: cddbd v1.5.2PL0 Copyright (c) Steve Scherf et al.
# Submitted via: ExactAudioCopyFreeDBPlugin 1.0
#
DISCID=b70cf40e
DTITLE=Dan Penn and Spooner Oldham - The Complete Duo Recordings:  Mom
DTITLE=ents From This Theatre
DYEAR=2015
DGENRE=Soul
TTITLE0=I'm Your Puppet
TTITLE1=Sweet Inspiration
TTITLE2=Cry Like a Baby
TTITLE3=Do Right Woman, Do Right Man
TTITLE4=I Met Her in Church
TTITLE5=Lonely Women Make Good Lovers
TTITLE6=It Tears Me Up
TTITLE7=The Dark End of the Street
TTITLE8=You Left the Water Running
TTITLE9=Out of Left Field
TTITLE10=Memphis Women and Chicken
TTITLE11=A Woman Left Lonely
TTITLE12=I'm Living Good
TTITLE13=Ol' Folks
EXTD=
EXTT0=
EXTT1=
EXTT2=
EXTT3=
EXTT4=
EXTT5=
EXTT6=
EXTT7=
EXTT8=
EXTT9=
EXTT10=
EXTT11=
EXTT12=
EXTT13=
PLAYORDER=
